<svg id="visual" viewBox="0 0 960 300" width="960" height="300" xmlns="http://www.w3.org/2000/svg" xmlns:xlink="http://www.w3.org/1999/xlink" version="1.1"><rect x="0" y="0" width="960" height="300" fill="#202731"></rect><path d="M0 151L22.8 157.2C45.7 163.3 91.3 175.7 137 183.5C182.7 191.3 228.3 194.7 274 203.7C319.7 212.7 365.3 227.3 411.2 222C457 216.7 503 191.3 548.8 188.3C594.7 185.3 640.3 204.7 686 213.7C731.7 222.7 777.3 221.3 823 225C868.7 228.7 914.3 237.3 937.2 241.7L960 246L960 0L937.2 0C914.3 0 868.7 0 823 0C777.3 0 731.7 0 686 0C640.3 0 594.7 0 548.8 0C503 0 457 0 411.2 0C365.3 0 319.7 0 274 0C228.3 0 182.7 0 137 0C91.3 0 45.7 0 22.8 0L0 0Z" fill="#ff6f61"></path><path d="M0 143L22.8 138.8C45.7 134.7 91.3 126.3 137 122.3C182.7 118.3 228.3 118.7 274 130C319.7 141.3 365.3 163.7 411.2 171C457 178.3 503 170.7 548.8 164.2C594.7 157.7 640.3 152.3 686 152.2C731.7 152 777.3 157 823 153.7C868.7 150.3 914.3 138.7 937.2 132.8L960 127L960 0L937.2 0C914.3 0 868.7 0 823 0C777.3 0 731.7 0 686 0C640.3 0 594.7 0 548.8 0C503 0 457 0 411.2 0C365.3 0 319.7 0 274 0C228.3 0 182.7 0 137 0C91.3 0 45.7 0 22.8 0L0 0Z" fill="#f76455"></path><path d="M0 121L22.8 118C45.7 115 91.3 109 137 110.7C182.7 112.3 228.3 121.7 274 127.7C319.7 133.7 365.3 136.3 411.2 136C457 135.7 503 132.3 548.8 127.2C594.7 122 640.3 115 686 119.5C731.7 124 777.3 140 823 142.2C868.7 144.3 914.3 132.7 937.2 126.8L960 121L960 0L937.2 0C914.3 0 868.7 0 823 0C777.3 0 731.7 0 686 0C640.3 0 594.7 0 548.8 0C503 0 457 0 411.2 0C365.3 0 319.7 0 274 0C228.3 0 182.7 0 137 0C91.3 0 45.7 0 22.8 0L0 0Z" fill="#ee5849"></path><path d="M0 82L22.8 82.5C45.7 83 91.3 84 137 84.3C182.7 84.7 228.3 84.3 274 84.2C319.7 84 365.3 84 411.2 85.2C457 86.3 503 88.7 548.8 86.3C594.7 84 640.3 77 686 79.7C731.7 82.3 777.3 94.7 823 99.5C868.7 104.3 914.3 101.7 937.2 100.3L960 99L960 0L937.2 0C914.3 0 868.7 0 823 0C777.3 0 731.7 0 686 0C640.3 0 594.7 0 548.8 0C503 0 457 0 411.2 0C365.3 0 319.7 0 274 0C228.3 0 182.7 0 137 0C91.3 0 45.7 0 22.8 0L0 0Z" fill="#e64c3d"></path><path d="M0 33L22.8 31.8C45.7 30.7 91.3 28.3 137 27C182.7 25.7 228.3 25.3 274 25.8C319.7 26.3 365.3 27.7 411.2 29.7C457 31.7 503 34.3 548.8 33.8C594.7 33.3 640.3 29.7 686 30.3C731.7 31 777.3 36 823 42C868.7 48 914.3 55 937.2 58.5L960 62L960 0L937.2 0C914.3 0 868.7 0 823 0C777.3 0 731.7 0 686 0C640.3 0 594.7 0 548.8 0C503 0 457 0 411.2 0C365.3 0 319.7 0 274 0C228.3 0 182.7 0 137 0C91.3 0 45.7 0 22.8 0L0 0Z" fill="#dd3f31"></path></svg>